<svg width="100" height="100" viewBox="0 0 100 100" fill="none" xmlns="http://www.w3.org/2000/svg">
  <path d="M50 10C60 25 80 25 80 40C80 65 65 85 50 85C35 85 20 65 20 40C20 25 40 25 50 10Z" fill="#990000"/>
  <path d="M50 20C55 30 65 30 65 40C65 55 57.5 70 50 70C42.5 70 35 55 35 40C35 30 45 30 50 20Z" fill="#880000"/>
  <path d="M30 45C32 45 34 47 34 49C34 51 32 53 30 53C28 53 26 51 26 49C26 47 28 45 30 45Z" fill="#FFCC00"/>
  <path d="M45 60C47 60 49 62 49 64C49 66 47 68 45 68C43 68 41 66 41 64C41 62 43 60 45 60Z" fill="#FFCC00"/>
  <path d="M60 50C62 50 64 52 64 54C64 56 62 58 60 58C58 58 56 56 56 54C56 52 58 50 60 50Z" fill="#FFCC00"/>
  <path d="M40 30C42 30 44 32 44 34C44 36 42 38 40 38C38 38 36 36 36 34C36 32 38 30 40 30Z" fill="#FFCC00"/>
  <path d="M55 35C57 35 59 37 59 39C59 41 57 43 55 43C53 43 51 41 51 39C51 37 53 35 55 35Z" fill="#FFCC00"/>
</svg>